<svg width="520" height="440" viewBox="0 0 520 440" fill="none" xmlns="http://www.w3.org/2000/svg">
  <defs>
    <linearGradient id="flaskGrad" x1="0" y1="0" x2="1" y2="1">
      <stop offset="0%" stop-color="#e8d3a5"/>
      <stop offset="100%" stop-color="#d5b77a"/>
    </linearGradient>
    <linearGradient id="liquidGrad" x1="0" y1="0" x2="0" y2="1">
      <stop offset="0%" stop-color="#2fae8b"/>
      <stop offset="100%" stop-color="#0f4f46"/>
    </linearGradient>
    <linearGradient id="gearGrad" x1="0" y1="0" x2="1" y2="1">
      <stop offset="0%" stop-color="#d5b77a"/>
      <stop offset="100%" stop-color="#fdf6e3"/>
    </linearGradient>
    <filter id="soft" x="-20%" y="-20%" width="140%" height="140%">
      <feGaussianBlur stdDeviation="14"/>
    </filter>
  </defs>

  <circle cx="260" cy="220" r="190" fill="#16866a" opacity="0.08"/>
  <circle cx="260" cy="220" r="150" stroke="#16866a" stroke-width="1.5" stroke-dasharray="4 10" opacity="0.35"/>

  <g>
    <circle cx="140" cy="320" r="7" fill="#16866a" opacity="0.5"/>
    <circle cx="400" cy="120" r="5" fill="#d5b77a" opacity="0.7"/>
    <circle cx="430" cy="300" r="4" fill="#16866a" opacity="0.4"/>
    <circle cx="110" cy="130" r="4" fill="#d5b77a" opacity="0.5"/>
  </g>

  <g>
    <path d="M220 60 h80 l0 30 h20 l-30 200 a28 28 0 0 1-28 28 h-24 a28 28 0 0 1-28-28 l-30-200 h20 z" fill="#16866a" opacity="0.25"/>
    <path d="M214 322 a28 28 0 0 1 28-28 h24 a28 28 0 0 1 28 28 z" fill="url(#liquidGrad)" opacity="0.9"/>
    <path d="M218 292 l26-196 h32 l26 196 z" fill="url(#liquidGrad)" opacity="0.55"/>
    <path d="M220 60 h80 l0 30 h-80 z" fill="#fdf6e3" opacity="0.25"/>
    <path d="M226 60 h68 l0 22 h-68 z" fill="url(#flaskGrad)"/>
    <path d="M220 60 h80 l0 30 h20 l-8 52 h-104 l-8-52 h20 z" fill="none" stroke="#fdf6e3" stroke-width="2.5" opacity="0.5"/>
    <path d="M198 252 l30 44 a28 28 0 0 0 24 12 h16 a28 28 0 0 0 24-12 l30-44" fill="none" stroke="#fdf6e3" stroke-width="2" opacity="0.4"/>
    <circle cx="242" cy="216" r="4" fill="#fdf6e3" opacity="0.8"/>
    <circle cx="268" cy="200" r="3" fill="#fdf6e3" opacity="0.6"/>
    <circle cx="256" cy="236" r="2.5" fill="#fdf6e3" opacity="0.7"/>
  </g>

  <g>
    <circle cx="120" cy="120" r="52" fill="#0f4f46" opacity="0.35"/>
    <circle cx="120" cy="120" r="52" fill="url(#gearGrad)" opacity="0.9"/>
    <circle cx="120" cy="120" r="38" fill="#0f4f46"/>
    <circle cx="120" cy="120" r="14" fill="#d5b77a"/>
    <g stroke="#0f4f46" stroke-width="10" stroke-linecap="round">
      <line x1="120" y1="58" x2="120" y2="78"/>
      <line x1="120" y1="162" x2="120" y2="182"/>
      <line x1="58" y1="120" x2="78" y2="120"/>
      <line x1="162" y1="120" x2="182" y2="120"/>
      <line x1="76" y1="76" x2="90" y2="90"/>
      <line x1="150" y1="150" x2="164" y2="164"/>
      <line x1="164" y1="76" x2="150" y2="90"/>
      <line x1="90" y1="150" x2="76" y2="164"/>
    </g>
  </g>

  <g>
    <rect x="368" y="268" width="26" height="86" rx="8" transform="rotate(30 381 311)" fill="#d5b77a"/>
    <circle cx="381" cy="311" r="18" fill="#d5b77a" opacity="0.2"/>
    <circle cx="381" cy="311" r="14" fill="none" stroke="#fdf6e3" stroke-width="2.5"/>
    <circle cx="381" cy="311" r="5" fill="#fdf6e3"/>
    <line x1="330" y1="238" x2="408" y2="318" stroke="#16866a" stroke-width="5" stroke-linecap="round" opacity="0.35"/>
  </g>
</svg>